<svg width="44" height="43" viewBox="0 0 44 43" fill="none" xmlns="http://www.w3.org/2000/svg">
<path d="M31.3965 6.63462C31.0581 6.2506 28.5308 6.25258 25.6816 6.5801C21.2523 7.10339 20.5318 7.38141 20.4001 8.31592C19.9778 10.6714 21.0879 11.0261 26.2377 10.2248C31.81 9.27169 33.1248 8.41758 31.3965 6.63462Z" fill="#1C1C1C"/>
<path d="M25.119 21.3718C19.1644 18.5796 17.4197 18.2908 17.8294 20.2805C17.9959 21.0888 20.0826 22.409 24.1024 24.3034C27.4729 25.8778 30.3808 27.0937 30.6917 27.0297C30.9404 26.9785 31.0482 26.2433 30.8817 25.435C30.6513 24.3158 29.2138 23.3155 25.119 21.3718Z" fill="#1C1C1C"/>
<path d="M19.9669 33.3405C16.4444 29.14 12.4776 25.6144 11.8833 26.1905C10.8556 27.1799 11.8121 28.9922 15.3053 32.4209C17.1964 34.3648 19.2374 36.4074 19.8263 37.0639C20.4152 37.7204 21.1029 38.227 21.4138 38.1629C22.7195 37.894 22.1104 35.8806 19.9669 33.3405Z" fill="#1C1C1C"/>
</svg>
